<svg width="696" height="578" viewBox="0 0 696 578" xmlns="http://www.w3.org/2000/svg">
    <path d="M334.296 1.147c9.885 3.102 18.238 8.617 26.1 15.234 9.694 8.954 18.598 18.888 26.146 29.719 6.889 9.475 13.303 19.348 20.567 28.547 3.433 3.975 6.291 8.356 10.284 11.933 2.206 1.892 4.29 3.646 7.226 4.243 3.44.674 6.942 1.28 10.452 1.371 6.406.077 12.75.613 19.157.1 8.583-.659 16.713.283 25.288.352 6.268-.092 12.276 1.632 18.544 1.723 5.502 1.012 11.027 1.555 16.567 2.344 3.975.876 8.008 1.687 12.055 2.493l4.05.807c8.104 1.619 16.203 3.295 23.941 5.5 2.391.606 4.414-.298 6.66-.972 7.31-2.527 14.658-4.442 22.398-4.978 3.862-.184 7.625-.988 11.494-1.034 5.165-.177 10.154.842 15.35 1.24 6.865.697 12.666 3.401 18.857 6.212 11.863 6.51 20.36 16.989 26.054 29.114 2.376 5.185 4.36 10.608 6.039 16.061.889 3.34 1.126 6.771 1.969 10.15.743 2.894.705 5.767.943 8.715.92 8.74.245 17.916-.621 26.663-1.28 5.27-1.28 10.447-3.242 15.503-2.222 6.472-4.153 13.028-6.712 19.37-1.908 6.066-4.79 11.68-7.058 17.617-2.069 4.075-3.885 8.287-5.97 12.347-.696 1.394-1.44 2.757-2.168 4.128 3.809.153 7.617.552 11.38 1.172a288.684 288.684 0 0 1 13.8 3.93c5.602 2.274 11.204 4.603 16.575 7.383-4.482.636-8.766 1.96-13.18 2.934-4.98 1.493-9.831 3.653-14.36 6.211 9.755-1.723 19.709-2.006 29.525-.582 4.66 1.05 9.218 2.604 13.594 4.52-8.62 2.42-16.774 6.135-23.977 11.488-2.797 2.16-5.387 4.542-8.07 6.848.652-3.57 2.185-7.054 3.947-10.21 1.617-3.24 4.828-5.798 7.701-7.897-4.436.613-8.873.115-13.31.958-4.667.942-9.395.896-14.023 2.121-5.295.682-10.376 1.318-15.525 2.842 3.532-8.418 11.594-15.158 19.272-19.73-1.004-.713-1.977-1.471-3.134-1.908-4.49-1.631-9.119-2.635-13.793-3.546-6.713-.797-13.694-.023-20.407-.437 3.112-2.145 6.552-3.416 10.039-4.787 1.754-.542 2.299-2.08 2.76-3.67l.186-.652c.145-.505.298-1.002.494-1.46 3.303-8.388 7.035-16.63 10.1-25.108 3.678-9.03 6.146-18.567 8.82-27.942.927-5.783 2.406-11.435 2.966-17.264 1.624-7.545 1.065-14.63 1.088-22.373-.468-5.676-1.694-11.39-3.203-16.882-1.196-4.94-3.962-9.658-6.544-14.001-3.617-4.979-7.962-9.697-13.518-12.53-3.938-2.16-7.578-4.397-12.008-5.47-9.923-2.772-19.601-4.48-29.846-2.236-5.702.597-11.204 1.876-16.844 2.849-5.433 1.233-10.628 3.025-15.915 4.726-4.897 1.302-9.112 3.546-13.817 5.4-4.26 1.608-8.33 3.944-12.367 6.043-.556.306-1.107.623-1.658.943l-1.1.642c-2.383 1.39-4.786 2.753-7.465 3.516-3.655 1.034-6.659 2.696-10.605 1.632.207-2.459 2.835-4.565 4.429-6.281 6.33-5.193 12.759-10.294 19.349-15.15 4.023-2.628 8.061-5.24 12.467-7.016-5.992-.705-11.732-2.206-17.778-2.497-8.46-1.662-16.705-1.011-25.272-1.119-5.349-.16-10.383 1.356-15.716 1.716-7.755 1.632-15.64 3.27-23.05 6.112-6.744 2.038-13.18 4.856-19.832 7.177-9.195 4.113-18.49 8.211-27.096 13.496-16.245 8.923-31.142 21.691-45.77 33.104-3.893 2.98-7.48 6.38-11.464 9.222-8.284 7.008-16.391 14.239-24.79 21.201-7.839 6.771-14.597 14.476-21.617 22.052-6.115 7.115-12.682 13.81-18.797 20.925-4.973 5.01-9.433 10.54-14.467 15.472-3.08 3.546-6.138 8.035-10.391 10.134.467-4.037 3.395-5.791 5.234-9.115 4.39-6.986 9.448-13.435 14.62-19.838 7.64-9.413 15.388-18.873 23.449-27.919 2.222-3.117 5.119-5.568 7.548-8.525 9.034-9.627 18.253-19.04 28.207-27.734 10.682-9.666 21.402-19.853 33.25-28.08 9.7-7.054 20.03-12.799 30.597-18.405 12.887-6.715 26.193-12.382 39.593-17.914l4.022-1.657 4.025-1.653c3.962-1.41 7.847-3.034 11.663-4.788-3.839-.78-7.479-.873-11.364-.52-7.394.114-14.866.329-22.237-.406-8.292-.307-16.583-2.482-24.085-5.998-5.778-3.293-7.08-8.563-10.644-13.81-3.264-4.74-6.16-9.704-9.38-14.476-4.352-7.238-9.693-13.879-14.635-20.535-7.326-10.57-15.724-20.573-25.64-28.822-6.422-5.224-14.452-9.904-22.851-10.593-3.625-.306-7.57.046-10.521 2.382-3.502 2.773-5.947 6.985-7.02 11.29-2.007 6.993-3.953 15.104-2.52 22.35 2.827-5.783 3.019-12.14 6.1-17.839 1.792-3.845 4.59-6.778 8.635-8.226 4.468-.865 8.452-.138 12.537 1.708 2.835 1.838 5.885 3.24 8.59 5.285 5.816 4.244 11.203 9.26 15.923 14.683 9.556 11.995 17.786 25.115 24.514 38.887 2.375 5.768 5.234 11.16 6.874 17.218.605 2.13 2.145 4.251.49 6.312-2.265 3.76-6.326 5.486-10.38 7.3l-.785.352c-1.305.591-2.597 1.205-3.816 1.914-5.793 2.873-11.663 5.53-17.226 8.862-17.548 9.192-33.157 20.826-48.016 33.863-7.525 7.276-15.18 13.863-21.747 22.32 2.736 2.688 5.693 5.338 8.069 8.34 1.693 2.145 3.364 4.052 4.03 6.786 1.51 5.017.844 10.172-.865 15.036-2.905 6.09-7.065 11.627-12.161 16.062-1.72 1.673-3.558 3.196-5.417 4.699l-1.863 1.5c-.62.5-1.24 1.004-1.854 1.514-7.081 5.369-14.054 11.045-20.935 16.651a1046.006 1046.006 0 0 0-39.533 36.222c-7.31 6.548-14.322 13.289-20.637 20.795 4.23 4.312 7.104 10.133 9.817 15.48 1.456 2.611 3.555 5.208 5.732 7.268 4.605 3.478 9.586 3.784 15.095 4.412 2.445.307 5.433.452 7.188 2.413 3.203 3.347 4.307 8.402 7.38 11.78 1.302 1.103 2.896 2.788 4.75 1.992 7.265-2.076 14.407-4.964 21.104-8.456 9.625-4.428 19.295-8.947 28.437-14.3 13.548-7.223 26.46-15.633 39.977-22.91 2.705-1.516 5.188-3.232 8.092-4.381-1.563 3.408-4.467 5.101-7.18 7.644-19.287 17.632-41.686 32.637-64.03 46.125-5.855 3.248-11.304 7.223-17.005 10.716-6.322 2.803-13.617 3.86-20.444 4.588-3.94.919-7.931 1.187-11.9 1.891-4.384 11.267-4.453 22.619-3.84 34.521.536 7.223 2.996 13.963 6.299 20.351 2.843 4.971 6.605 9.061 10.79 12.93 2.927 1.922 5.44 4.289 8.536 5.974 3.172 1.693 6.214 3.661 9.479 5.178 4.881 1.968 9.417 4.572 14.39 6.326 7.05 3.233 14.599 5.24 21.909 7.836 7.533 1.984 15.126 3.799 22.674 5.73 9.686 1.493 18.115 8.041 27.204 11.925 5.854 2.956 12.452 4.098 18.935 2.895 4.797-.72 9.287-3.508 13.387-5.959 2.804-1.96 5.686-3.906 8.214-6.22 4.567-4.097 9.272-8.057 13.717-12.293 5.111-4.182 9.762-8.303 15.74-11.19 6.084-3.57 12.636-5.66 19.141-8.341 3.817-1.218 7.587-2.436 11.319-3.922 9.272-2.85 18.199-7.72 26.437-12.791 5.072-3.63 10.069-7.054 14.69-11.275 5.754-5.966 11.593-12.492 15.463-19.868 7.272-12.6 14.138-24.74 18.728-38.627 1.985-7.184 3.425-14.453 4.1-21.883.483.935.95 1.87 1.364 2.834.444 3.263.82 6.48.873 9.774.123 6.074.008 12.071-2.26 17.793-2.475 6.694-4.713 13.404-7.832 19.837-9.027 21.056-23.157 39.714-42.146 52.758-14.766 9.299-30.835 15.128-47.165 22.68-2.483 1.425-5.21 2.305-7.655 3.814-3.494 2.16-7.195 3.853-10.46 6.388-6.674 4.42-11.686 10.042-16.973 15.94-.866 1.003-1.724 1.968-2.26 3.194-1.353 2.835-2.392 5.776-3.397 8.74l-.752 2.226c-.63 1.855-1.272 3.712-1.997 5.547-1.855 6.327-3.977 12.546-5.625 18.934-1.172 5.048-1.249 10.149-1.027 15.304 3.18-1.64 6.284-3.401 9.334-5.262 3.578-2.237 7.563-3.592 11.34-5.515 8.514-3.738 17.633-6.25 26.829-7.56 5.325-.13 10.344-.567 15.433 1.379-5.48 5.492-11.219 10.256-15.487 16.881-2.782 3.654-4.514 7.859-5.525 12.324 4.843-3.24 9.8-6.22 14.943-8.954 5.172-2.428 10.03-5.262 15.57-6.824 10.407-4.244 21.212-5.852 32.415-4.565-5.548 5.093-10.912 10.14-15.272 16.33-2.843 4.565-5.403 9.03-6.054 14.468 2.942-1.784 5.778-3.837 8.85-5.407 3.594-1.854 6.89-4.106 10.736-5.446 3.318-1.218 6.759-2.796 10.268-3.34 3.502-.321 7.288-.329 10.79.039 3.709.65 7.402 2.03 10.812 3.607-10.138-.061-19.77 2.819-29.218 6.197-4.66 2.152-9.418 4.22-13.817 6.878-7.425 4.021-13.517 9.16-20.038 14.3-.215-9.122 1.257-18.605 5.057-26.953 1.71-2.566 2.736-5.224 4.981-7.415-3.555 1.134-7.287 1.18-10.858 2.306-10.62 3.309-21.18 7.613-30.238 14.154-5.831 3.807-11.318 8.35-15.854 13.634.413-7.95 2.858-15.273 5.295-22.764 1.371-3.607 3.073-7.046 4.705-10.531 1.51-3.485 3.778-6.465 5.456-9.881-3.518 1.026-6.836 2.558-10.33 3.638-.39.299-.781.605-1.18.904-5.027 1.47-8.866 4.236-13.456 6.61-11.877 6.825-22.138 15.595-31.502 25.544-.72-7.031-.935-14.1-.368-21.155.36-4.19.092-8.219 1.012-12.362.996-4.535.996-9.061 2.467-13.512 1.502-4.871 2.79-9.857 4.797-14.514 1.157-2.053 2.138-4.213 3.126-6.342-4.804.865-10.1 1.73-14.95.988-3.464-.475-7.034-.889-10.375-1.9-1.487-.39-2.797-.758-4.223.07-3.77 1.524-5.946 4.771-9.471 6.701-3.51 2.49-7.012 4.703-10.736 6.848-5.034 2.941-10.437 5.055-15.946 6.909-6.904 1.577-13.916 3.347-21.272 4.082-6.882.16-13.863.36-20.736-.184-4.606-.88-9.234-1.378-13.747-2.711-5.778-.912-11.004-3.225-16.499-5.101-9.969-4.282-19.74-9.475-28.383-16.062-3.946-3.049-6.943-6.917-9.471-11.175-2.054-3.593-2.452-7.36-3.38-11.451-1.264-7.491.805-13.695 1.502-21.056.399-4.098 1.717-7.897 2.713-11.857.571-1.623-.028-3.185-.646-4.724l-.195-.485c-.16-.404-.313-.807-.439-1.21-2.62-4.893-5.594-9.03-7.15-14.399-1.654-4.741-3.31-9.42-3.976-14.43-.667-3.34-1.625-6.503-1.724-9.942-.422-3.853-1.35-7.56-1.25-11.474.039-6.074-.29-12.423.667-18.413.881-5.331.613-10.662 2.008-15.932a205.479 205.479 0 0 1 3.28-20.718c.582-2.107 1.088-3.953-.085-5.967-1.915-4.619-5.908-6.702-6.835-11.788.069-1.93 1.126-3.914 2.169-5.507 3.578-5.316 7.662-10.21 11.892-15.012 12.897-14.722 27.303-27.957 42.767-39.952 1.18-3.21 1.747-6.533 2.598-9.835 1.134-3.63 2.444-7.2 3.502-10.86 1.617-4.88 3.969-9.521 5.839-14.316 2.958-6.135 6.222-12.125 9.096-18.298 3.003-5.753 6.49-11.19 10.29-16.445 5.495-7.468 11.143-14.821 17.15-21.883 5.725-6.595 11.004-13.55 16.683-20.175 1.371-1.815 3.249-3.86 3.762-6.112.192-3.761-1.326-7.606-1.885-11.351-1.226-4.336-1.318-8.67-1.824-13.19-.107-4.174-1.517-8.104-1.617-12.263-.084-4.151-1.302-8.111-1.448-12.247-.123-6.947-1.732-13.703-1.601-20.68.122-6.925-.269-13.91.245-20.819 1.019-7.023 1.732-13.902 4.176-20.619 1.356-5.515 4.107-10.355 7.31-14.982 2.552-3.561 6.261-6.319 10.138-8.287 5.173-1.83 10.82-1.195 16.054 0zM213.423 432c-5.242 5.316-6.129 11.45-8.574 18.122-1.582 4.809-3.126 9.428-2.79 14.57-.473 6.377 1.934 12.193 5.548 17.335 4.204 5.316 9.591 8.587 15.346 12.003 8.153 4.225 17.11 7.224 25.936 9.746 5.525.984 10.905 2.469 16.5 3.044 6.648 1.538 13.954 1.114 20.778 1.159 7.023.19 14.29-1.681 21.038-3.529 3.546-.886 6.993-2.5 10.187-4.233 4.318-2.227 8.528-4.938 11.608-8.732-2.858-2.113-5.181-4.665-8.17-6.588-1.872-1.242-3.881-2.212-5.853-3.287a80.1 80.1 0 0 1-4.792-1.151c-4.806-1.181-9.934-.962-14.718-2.234-6.366-1.409-12.83-2.696-19.028-4.74-2.614-.91-5.212-1.886-7.856-2.689-4.677-1.287-9.178-3.544-13.664-5.407-13.794-6.316-26.128-14.987-35.413-27.035-1.857-2.5-3.072-5.006-6.083-6.354zm311.556-99c1.654 1.889 3.087 3.907 4.001 6.263 3.004 7.562 5.39 15.698 5.938 23.842.267 4.9 1.471 9.619 1.494 14.52.114 4.963.061 9.94.252 14.903 5.9-6.155 10.434-13.526 12.92-21.716l1.147-3.675c1.527-4.904 3.021-9.82 4.271-14.799 1.502 2.294 2.98 4.58 4.162 7.073 2.973 6.63 5.762 13.183 6.502 20.5 1.6 6.829 1.456 13.688 1.196 20.646-.205 3.87-1.22 7.609-1.63 11.47-.496 4.267-1.868 8.236-3.149 12.304 7.645-8.182 12.996-17.955 16.975-28.37 1.555-4.893 3.506-9.489 4.573-14.528 2.111-8.51 4.474-17.243 5.29-25.998.434-5.207 1.661-10.277 1.898-15.515 5.411 10.147 10.206 20.256 13.003 31.481 2.858 9.772 4.81 19.72 5.092 29.929.366 11.164.366 22.511-1.052 33.614-.983 5.712-2.112 11.37-3.872 16.906 4.886-3.372 8.956-8.288 12.614-12.93 11.068-14.796 20.1-31.381 28.675-47.73 2.774-4.94 4.71-10.124 7.721-14.926-1.159 6.179-2.47 12.311-4.192 18.36-1.479 7.065-4.215 13.526-6.639 20.286-4.794 11.24-10.32 22.076-17.851 31.748-7.134 9.964-16.28 18.536-26.121 25.77-5.633 4.144-11.746 7.271-18.003 10.338-2.805 1.338-5.892 2.118-8.82 3.234 5.115-5.551 9.59-11.607 12.836-18.451 4.14-7.907 6.73-16.7 8.903-25.318 1.12-5.567 1.563-11.233 2.607-16.815.396-8.266.975-16.577.549-24.851-.298-6.385-.298-12.716-1.456-19.032-.633 8.074-2.272 15.736-5.26 23.268-1.288 4.083-3.247 7.77-5.411 11.447-8.385 15.179-21.853 26.289-37.265 33.79-5.655 2.516-11.105 5.123-17.287 6.087 2.607-2.416 4.993-5.032 7.31-7.723 8.582-10.055 13.918-22.091 17.142-34.838.846-5.834 2.37-11.7 2.294-17.587-.045-7.585.427-14.865-1.082-22.366-5.366 21.326-20.626 37.934-39.254 48.762 1.76-4.137 3.468-8.25 4.474-12.647 3.171-11.096 5.29-22.443 5.496-34.012.853-10.43.731-20.646-.046-31.076-.053-3.288-.427-6.5-.869-9.757L524.98 333zM199.926 87.107c5.62.321 11.223.65 16.842.927 8.39 1.103 16.718 2.466 25.032 4.037 6.66 1.524 13.205 3.585 19.765 5.47 5.32 1.991 10.756 3.577 15.862 6.013 4.21 1.992 8.198 3.125 11.827 5.692.704 2.397.934 4.872 1.5 7.293 1.401 4.803 1.638 9.805 3.246 14.562-3.529-2.26-7.066-4.466-10.84-6.304-9.377-5.363-19.214-8.917-29.288-12.702-7.004-1.922-13.94-4.075-21.044-5.622-3.958-.751-7.954-.95-11.865-1.87-3.445-.758-6.829-.559-10.312-1.003-10.128-1.31-20.5-1.41-30.628-.07-3.873.537-7.663.277-11.475 1.18-2.273.522-4.57.774-6.874 1.065-8.451 1.073-16.42 3.93-24.45 5.983-4.578 1.471-8.919 3.486-13.489 5.003-32.802 13.444-61.7 36.64-81.642 66.011-4.585 6.014-7.869 13.153-11.796 19.596-1.922 4.933-4.616 9.3-6.3 14.34-.965 2.804-2.228 5.508-3.147 8.327-2.212 7.967-5.29 16.28-6.23 24.507-.391 3.094-1.356 6.036-1.486 9.177-.444 5.393-1.638 10.633-1.539 16.087.115 7.293-.382 14.862.651 22.055.873 4.91.888 9.844 2.136 14.7 1.041 9.538 4.218 18.11 6.851 27.242 1.041 2.773 2.197 5.485 3.162 8.28 1.584 4.59 4.256 8.619 5.879 13.2 3.292 5.431 6.07 11.13 9.6 16.432 4.432 6.473 9.002 13.015 14.269 18.852 11.054 13.284 24.641 24.706 38.956 34.312 11.583 7.439 24.037 13.736 36.982 18.44 5.435 2.359 11.13 3.615 16.78 5.323 6.339 1.862 12.654 3.18 19.23 3.884 5.642 1.433 11.398 1.004 17.086 2.183-1.454 5.148-1.883 9.936-1.6 15.291-9.194-.008-18.487-2.038-27.558-3.524-7.104-1.019-14.254-3.57-21.205-5.439-3.498-.927-6.813-2.26-10.174-3.6-39.408-14.486-73.573-42.647-95.23-78.644-7.042-11.475-12.439-23.748-17.062-36.365-1.692-5.937-3.69-11.79-5.206-17.78-2.48-12.341-4.86-24.583-5.052-37.223-.138-12.318-.322-24.483 1.179-36.74.888-5.132 1.653-10.265 2.74-15.367 1.18-7.944 3.881-15.298 6.094-22.966 1.071-3.47 2.503-6.703 3.812-10.066 17.875-45.604 54.29-83.248 99.118-102.874 10.442-4.987 22.124-8.365 33.254-11.422 5.428-1.555 11-2.053 16.52-3.24 5.29-.537 10.365-1.862 15.677-1.923 7.196-.192 14.224-1.142 21.442-.72zM165.15 112l-.76.966c-6.371 4.332-11.54 9.814-16.309 15.817-7.092 9.147-13.142 19.03-17.858 29.61-1.863 4.562-4.102 8.795-5.643 13.48-1.641 4.945-3.734 9.844-5.107 14.858-2.246 8.618-5.176 16.523-6.218 25.455 7.913.015 15.826 0 23.746.007l2.209-6.816c3.527-8.518 8.243-16.76 14.231-23.806 11.103-13.701 25.618-23.093 41.528-30.339 5.252-1.924 10.528-4.393 15.888-5.819 4.416-1.058 8.756-2.392 13.188-3.412 3.887-.805 7.829-1.042 11.7-1.893 4.233-.974 8.32-.775 12.706-1.166 8.228-.675 16.332-.03 24.537.652 4.393.935 8.795 1.656 13.226 2.392.599.176 1.197.368 1.787.567-2.507 2.5-4.754 5.091-6.993 7.828-9.876-.536-19.652-.084-29.49.729-10.574 1.403-21.01 3.527-31.414 5.88-6.617 1.956-13.495 3.612-19.806 6.448-17.382 7.338-33.753 19.805-43.391 36.25-2.7 3.987-4.325 8.404-6.219 12.79 6.28.329 12.483 1.21 18.786 1.241 5.444-.015 10.666 1.357 16.095 1.572 5.398.483 10.704.698 15.994 1.779 7.469.95 14.937 2.031 22.329 3.442 4.915.629 9.784 1.227 14.591 2.5-1.142 3.741-2.43 7.467-3.305 11.286-5.888-.637-11.654-1.91-17.528-2.684-6.755-1.426-13.664-1.357-20.419-2.745-3.818-.667-7.706-.636-11.524-1.387-4.371-.805-8.803-.621-13.181-1.396a61.017 61.017 0 0 0-9.953-.882c-4.83-.053-9.6-.713-14.415-.697-.483 8.64.59 17.32 3.297 25.546 1.672 5.13 3.274 10.22 5.804 15.005 5.705 12.267 13.28 23.362 21.723 33.888-2.86 3.757-5.72 7.254-7.445 11.731-5.651-6.226-10.582-13.157-15.22-20.149-5.767-8.472-10.398-17.588-14.24-27.072-2.599-5.72-3.833-11.654-5.398-17.711-1.088-3.888-1.12-8.074-1.656-12.13-.353-3.128-.306-6.264-.176-9.407-8.09-.184-16.187-.223-24.276.053-.66 7.269-2.239 14.392-2.676 21.675-.406 3.85-1.265 7.583-1.28 11.478-.1 8.204-1.09 16.338-1.166 24.55-.176 7.682.077 15.334.736 22.993.544 5.79.161 11.47 1.189 17.213.805 4.255.659 8.58 1.472 12.835.928 4.516 1.05 9.108 1.87 13.647 1.228 6.134 2.554 12.237 3.773 18.37 1.22 5.39 3.083 10.696 4.585 16.032 1.603 5.927 4.233 11.509 6.403 17.305 2.845 6.141 5.935 12.229 9.63 17.91 7.231 10.642 15.244 21.292 24.514 30.247.698.828 1.388 1.656 2.086 2.484-2.193-.238-4.363-.468-6.487-1.058-2.714-.782-5.39-.797-7.844-2.354-5.582-4.638-10.727-9.913-14.99-15.786-7.216-9.814-13.473-20.295-18.487-31.397-3.144-7.008-5.782-14.253-8.335-21.499-1.718-6.195-3.711-12.305-5.252-18.546-3.198-15.633-6.35-30.952-6.77-46.969-.07-4.891-.898-9.683-1.074-14.56-.53-12.252-.353-24.588.874-36.794.421-8.733.728-17.619 2.246-26.244.345-3.826.92-7.445 1.818-11.171-3.704.414-7.423.498-11.134.774-3.688.468-7.3 1.296-11.026 1.534-.644 2.261-1.22 4.53-1.603 6.854-.897 4.593-2.17 9.108-3.166 13.678-1.296 6.617-3.72 13.08-5.605 19.543-1.273 4.562-3.244 9.017-4.9 13.456-2.852 8.258-7.79 16.04-10.221 24.458-1.733 5.03-3.527 10.128-4.647 15.334-1.357 7.59-3.42 15.288-3.964 22.979-.544 4.032-1.288 8.012-1.372 12.098-1.496-3.948-4.057-6.985-4.747-11.247-1.863-8.442-1.525-17.021.1-25.463.498-6.44 2.653-12.313 4.593-18.408 3.067-8.856 8.358-16.592 11.617-25.294 3.764-8.595 6.747-17.542 9.24-26.582 1.885-6.295 3.917-12.773 4.853-19.275l-2.163.383c-7.667 1.058-14.668 3.834-21.83 6.61-3.105 1.287-5.996 3.15-8.879 4.876-1.648.958-2.73 2.384-3.956 3.803-.53.414-1.058.828-1.595 1.234 1.02-3.512 1.311-7.222 2.699-10.596 5.79-7.008 13.426-10.742 21.822-13.716 5.429-1.603 10.927-3.504 16.493-4.417.269-3.519 1.189-6.908 1.618-10.396l.105-1.26.214-2.517c.39-4.614.739-9.222.624-13.873.138-7.652-.253-15.188-2.913-22.449l-.13-.636c1.817-1.74 3.519-3.58 5.32-5.329l1.527-.383c1.617 5.995 3.082 11.907 3.404 18.056.905 6.118.89 12.275.598 18.439-.353 3.948-.866 7.874-.974 11.853-.13 2.27-.421 4.524-.736 6.778 2.876-.222 5.736-.521 8.573-1.073 4.616-.928 9.408-.76 14.131-1.243 1.633-7.498 4.118-14.705 6.188-22.08 6.433-17.865 13.802-36.94 24.989-52.413 6.096-8.802 13.993-16.446 22.374-23.062.667-.545 1.334-1.082 1.994-1.634 2.27-.414 4.462-1.127 6.732-1.556 1.166-.161 2.331-.314 3.497-.46zM294 439.05c-.019.305-.022.609-.02.907l.002.356c.015 1.705.025 3.186-2.137 3.687-2.637.014-3.334-2.368-2.53-4.646 1.56-.463 3.085-.359 4.685-.304zm26.096-62.524c7.944 2.456 15.35 5.375 20.53 12.348 7.52 9.074 9.76 23.098 4.512 33.847-2.666 5.205-6.517 9.082-10.846 12.85-1.77 1.02-3.418 2.209-5.051 3.429.319-.672.645-1.344.964-2.016 4.246-4.749 7.383-10.788 9.297-16.873 1.694-7.452 1.215-16.178-2.65-22.904-4.65-8.68-12.814-14.874-22.096-17.6-6.449-2.177-13.05-4.07-19.756-5.22 8.317-.826 17.075-.425 25.096 2.139zM269.568 427c1.767.361 3.475.858 5.2 1.321.37 1.683.293 2.956-.194 4.618-1.876.061-3.735.075-5.603.048-1.455-1.58-2.094-2.411-1.951-4.475a66.956 66.956 0 0 1 2.548-1.512zm52.096-3.141c.635 2.209.333 3.129-.596 5.141-1.345-.157-2.712.102-3.792-.88-1.163-.802-1.042-2.933-1.276-4.222 2.04-1.627 3.49-.668 5.664-.04zM291.605 420c1.875.575 3.792 1.797 5.03 3.232.255 1.087.28 2.246.365 3.357-1.255.457-2.502.93-3.75 1.411-1.416-.851-3.01-1.553-4.011-2.869-.272-1.222-.238-2.538-.238-3.783.857-.497 1.68-.978 2.604-1.348zm-96.066-78c-.629 4.063-.958 8.133-1.871 12.15-.584 5.304-1.153 10.64-1.205 15.983-.322 4.832-.63 9.634-.36 14.474.412 6.044.457 11.95 1.64 17.927 1.572 6.676 3.765 13.391 6.954 19.466 2.013-1.73 4.745-2.927 6.385-5.008 1.033-2.347.83-5.472.688-7.995-.232-3.575-.18-7.142.457-10.67.838-4.49.434-8.957 1.812-13.362.823-5.473 2.605-9.962 1.721-15.587-1.093-5.328-4.057-9.55-7.336-13.697-3.458-4.29-5.89-9.085-8.885-13.681zm58.688 73.002c.844.444 1.688.887 2.523 1.345.382 1.76.695 3.829-2.01 4.525-2.557.662-4.174-1.406-5.74-2.594 1.322-1.931 2.053-3.337 5.227-3.276zm55.773-6.47c-.122 1.107-.25 2.207-.394 3.314-1.439.105-2.878.16-4.324.153a115.64 115.64 0 0 1-1.282-3.063c.73-.982.773-2.11 2.313-1.908 1.61-.202 2.441.745 3.687 1.504zm-26.17-3.46c1.816.29 4.292.903 4.11 2.94.504 1.934-2.31 3.133-4.152 2.974-1.99-.015-3.401-1.372-4.788-2.426.058-.86.14-1.711.223-2.57 1.527-.795 2.798-1.156 4.606-.918zm-25.877-4.409c-.085 1.413.434 2.868-.695 3.954-1.293.473-2.884.341-4.254.383-.569-1.4-1.904-3.78-.071-4.796 1.79-.516 3.295.062 5.02.46zM316.83 396c1.994.596 3.595 1.496 5.171 2.659l-.165 2.033c-1.106.473-2.177.974-3.36 1.308-1.611-.24-3.065-1.22-4.475-1.889.06-.871.13-1.736.218-2.607a71.138 71.138 0 0 1 2.611-1.504zm-23.585-8c.55.57 1.1 1.142 1.657 1.706.04 1.027.072 2.061.099 3.095-1.28.625-2.24 1.74-3.718.894-1.796-.833-3.181-3.029-1.57-4.762.735-1.249 2.299-.752 3.532-.933zm-21.304 1.41c.351 1.475-.928 2.446-1.558 3.59-2.055-.086-2.957-1.079-4.382-2.482.04-.841.093-1.69.152-2.539 2.095-1.87 4.502-.878 5.788 1.431zm51.205-33.247c3.344.607 6.611 1.989 9.625 3.514 5.627 3.363 9.57 8.44 12.23 14.323-4.02-3.256-7.472-6.74-12.346-8.926-3.336-1.404-6.734-2.611-10.285-3.385-6.373-.926-12.67-.729-19.05-.06-5.919 1.153-11.615 2.921-17.319 4.804 3.997-2.186 8.118-4.334 12.254-6.255 4.527-1.533 9.147-3.134 13.86-4 3.444-.235 7.587-.235 11.031-.015zM500.667 266c4.247 13.547 5.396 28.154 3.341 42.197-1.096 5.535-3.036 10.765-5.312 15.903-7.587 15.057-21.68 25.753-37.432 31.12-5.966 2.295-11.917 3.926-18.264 4.78 3.965-2.173 7.846-4.483 11.734-6.785 19.352-12.465 33.636-32.225 40.272-54.212 2.092-6.51 3.95-12.907 4.505-19.753.304-4.445 1.217-8.775 1.156-13.25zM491 258c-1.656 9.053-4.527 17.702-7.366 26.427-2.352 5.395-4.924 11.08-8.642 15.636-4.145 5.967-10.297 10.356-16.595 13.816-5.145 2.408-10.52 4.884-16.122 5.974-5.687 1.326-11.473 2.492-17.275 3.147 3.214-1.654 6.847-2.758 10.176-4.123 9.397-4.343 18.244-8.892 26.145-15.712 8.97-7.46 15.526-17.786 20.702-28.111 2.862-5.76 6.061-11.324 8.977-17.054zm-55.925-20.313c4.558 1.96 9.247 3.526 13.804 5.478 4.798 2.477 9.765 4.437 14.407 7.253 2.418-3.094 5.16-5.702 7.23-9.059.495-.293.99-.586 1.484-.887-.2 4.283-1.66 8.14-2.781 12.223-3.414 8.997-9.162 16.698-16.191 23.203-5.23 4.838-11.997 9.822-19.181 10.972-2.858.579-5.547 1.381-8.497 1.358-4.025.17-7.555-.987-11.433-1.798-4.573-.995-8.451-3.704-12.144-6.443 5.269.664 10.568 1.466 15.86 1.706 5.685.077 11.193-.494 16.129-3.55 7.586-4.306 13.047-11.127 15.589-19.46-2.905 1.342-5.153 3.271-7.733 5.054-2.765 1.944-5.747 3.572-8.76 5.108-2.966 1.505-6.226 1.86-9.517 2.477-3.113.555-6.334-.417-9.432-1.034-3.36-.718-5.848-2.554-8.683-4.375-3.545-2.377-6.45-6.266-9.463-9.02-10.428 11.389-18.956 22.762-31.007 32.608-2.457 1.883-4.682 3.72-7.756 4.499.927-2.57 2.256-4.576 4.079-6.597 2.418-2.57 4.133-5.602 6.288-8.403 4.913-7.516 9.957-14.885 14.43-22.686 4.14-7.146 9.54-14.561 17.087-18.373 4.148-2.384 8.637-2.77 13.333-2.909l1.336-.012c7.342-.067 14.56-.127 21.522 2.667zm-23.019 7.321c-2.647-.084-4.66.493-7.056 1.562.114 3.086 1.098 5.855 1.999 8.764 1.35 1.877 2.609 4.047 4.317 5.609 3.44 2.34 7.102 4.34 11.39 4.024 3.92.146 7.834-2.093 10.695-4.632 2.883-2.954 4.142-7.81 5.599-11.61-2.28-1.586-4.463-1.693-7.155-1.747.06 3.178-1.076 5.748-2.403 8.54-2.495 1.393-4.463 2.901-7.507 2.555-3.486.2-5.881-1.793-8.178-4.147-1.548-3.209-1.876-5.317-1.7-8.918zm185.767-118.943c6.295.657 12.613 2.71 18.27 5.521 7.822 4.59 14.53 10.868 18.157 19.292 3.128 6.293 4.876 13.35 6.233 20.209.713 7.095.652 14.312.039 21.407a259.16 259.16 0 0 1-2.776 12.991c-.69 5.392-2.814 10.204-4.615 15.275-3.834 8.905-8.902 17.184-15.243 24.538-5.214 5.423-10.711 10.402-17.228 14.252-3.236 1.741-6.663 1.833-10.129.71-3.803-7.47-7.467-15.053-11.286-22.515-1.886-4.368-4.462-8.355-6.41-12.693a461.51 461.51 0 0 1-3.662-6.83l-1.807-3.421c-2.411-4.558-4.854-9.093-7.557-13.501-8.173-14.61-18.846-26.83-28.453-40.41-1.204-1.656-2.561-3.268-3.167-5.238-.514-1.818.046-3.788 1.35-5.133 2.469-2.85 5.854-4.78 9.304-6.648l1.554-.84a87.163 87.163 0 0 0 3.065-1.722c11.493-6.797 23.416-12.281 36.75-14.244 5.926-1.504 11.538-.962 17.61-1zM271.193 200a58.3 58.3 0 0 0-1.416 1.339c-5.973 7.723-9.526 16.453-12.782 25.608-1.324 5.015-2.625 10.046-3.995 15.053 6.01-4.009 11.61-8.676 17.416-12.986 3.508-2.848 6.924-5.797 10.584-8.459-4.055-3.49-8.69-8.343-9.29-13.969-.38-2.19-.388-4.38-.518-6.586zm165.865 4.626c7.44 3.762 14.473 8.605 20.424 14.513 5.217 4.858 10.397 10.007 14.518 15.861-3.335-2.276-6.488-4.75-10.072-6.643-11.07-6.927-23.796-11.724-36.78-13.042-9.187-.505-18.858 2.161-26.579 7.257-2.903 1.846-5.028 4.344-7.569 6.62 1.701-4.168 3.864-7.954 6.064-11.862 4.636-7.156 10.337-13.363 18.86-15.401 6.91-2.299 14.623.077 21.134 2.697zM279.5 192c-.494.579-.987 1.165-1.473 1.76-2.287 4.525-2.93 10.818-.403 15.36 2.616 4.755 9.082 6.443 13.358 3.225 1.495-1.204 3.274-2.734 3.947-4.66 1.046-2.703 1.128-5.43 1.046-8.306-.785-.737-1.555-1.49-2.332-2.235-.792 3.06-1.413 6.554-3.057 9.25-1.78.863-4.194.435-6.115.388-1.017-1.023-2.213-1.998-3.013-3.226-.65-3.599.352-6.642 1.637-9.892-1.203-.539-2.4-1.093-3.595-1.664zm28.362-19.382c3.867 2.108 3.882 6.93 4.137 10.753-.135 5.168-.803 10.58-1.973 15.629-1.034-3.225-1.058-6.6-2.22-9.785-1.678-6.261-6.284-12.538-12.807-14.394 4.145-2.195 8.122-3.737 12.863-2.203z" fill="#8FA2B4" fill-rule="nonzero" opacity=".097"/>
</svg>
