<svg width="16" height="16" viewBox="0 0 16 16" xmlns="http://www.w3.org/2000/svg"><g fill="none" fill-rule="evenodd"><path d="M0 0h16v16H0z"/><path d="M16 2.912a6.41 6.41 0 01-1.885.53A3.359 3.359 0 0015.56 1.58a6.465 6.465 0 01-2.086.816 3.237 3.237 0 00-2.396-1.063c-1.812 0-3.281 1.508-3.281 3.366 0 .264.028.52.084.767-2.728-.14-5.146-1.48-6.766-3.518A3.428 3.428 0 00.67 3.642a3.39 3.39 0 001.46 2.801 3.223 3.223 0 01-1.488-.42v.042c0 1.631 1.132 2.992 2.635 3.3a3.189 3.189 0 01-1.483.059c.418 1.337 1.63 2.31 3.066 2.336A6.481 6.481 0 010 13.156a9.14 9.14 0 005.032 1.51c6.038 0 9.34-5.128 9.34-9.576 0-.146-.004-.293-.01-.436A6.733 6.733 0 0016 2.912" fill="#FFF"/></g></svg>