<svg width="16" height="16" viewBox="0 0 16 16" xmlns="http://www.w3.org/2000/svg"><g fill="none" fill-rule="evenodd"><path d="M0 0h16v16H0z"/><path d="M15.84 4.778s-.156-1.11-.636-1.6c-.609-.641-1.29-.644-1.603-.681-2.239-.164-5.598-.164-5.598-.164h-.006s-3.359 0-5.598.163c-.313.038-.994.04-1.603.683C.316 3.668.16 4.778.16 4.778S0 6.082 0 7.386v1.222c0 1.305.16 2.608.16 2.608s.156 1.11.635 1.6c.61.642 1.409.621 1.765.688 1.28.124 5.44.163 5.44.163s3.362-.005 5.601-.168c.313-.038.994-.041 1.603-.683.48-.49.636-1.6.636-1.6S16 9.913 16 8.61V7.385c0-1.304-.16-2.608-.16-2.608zM6.348 10.09V5.563l4.323 2.271-4.323 2.256z" fill="#FFF"/></g></svg>